<svg width="788" height="332" viewBox="0 0 788 332" fill="none" xmlns="http://www.w3.org/2000/svg">
<path d="M196.781 136.264C98.8279 136.264 98.828 222.789 0 222.789V262.778C98.828 262.778 98.8279 276.556 196.781 276.556C295.609 276.556 295.609 167.312 393.563 167.312C492.391 167.312 492.391 256.872 591.219 256.872C689.172 256.872 689.172 203.726 788 203.726V28.1069C689.172 28.1069 680.689 167.312 582.736 167.312C483.908 167.312 492.391 0 393.563 0C295.609 0 295.609 136.264 196.781 136.264Z" fill="url(#paint0_linear_678_5073)"/>
<path d="M196.781 258.481C98.828 258.481 98.828 233.605 0 233.605V331.487H196.781H393.563H591.219H788V171.415C675.082 171.415 719.611 242.63 621.658 242.63C522.83 242.63 524.397 135.182 425.569 135.182C327.615 135.182 295.609 258.481 196.781 258.481Z" fill="url(#paint1_linear_678_5073)"/>
<defs>
<linearGradient id="paint0_linear_678_5073" x1="381.136" y1="-124.734" x2="213.947" y2="351.643" gradientUnits="userSpaceOnUse">
<stop stop-color="#CDD2FD"/>
<stop offset="1" stop-color="#6979F8"/>
</linearGradient>
<linearGradient id="paint1_linear_678_5073" x1="381.136" y1="46.644" x2="292.052" y2="404.243" gradientUnits="userSpaceOnUse">
<stop stop-color="#CDFDDD"/>
<stop offset="1" stop-color="#1FAFFF"/>
</linearGradient>
</defs>
</svg>
