<svg width="647" height="307" viewBox="0 0 647 307" fill="none" xmlns="http://www.w3.org/2000/svg">
<path d="M161.57 126.5C81.1443 126.5 81.1443 206.5 0 206.5V243.472C81.1443 243.472 81.1443 256.212 161.57 256.212C242.715 256.212 242.715 155.206 323.141 155.206C404.285 155.206 404.285 238.013 485.429 238.013C565.856 238.013 565.856 188.875 647 188.875V26.5C565.856 26.5 558.891 155.206 478.465 155.206C397.32 155.206 404.285 0.512817 323.141 0.512817C242.715 0.512817 242.715 126.5 161.57 126.5Z" fill="url(#paint0_linear_530_33835)"/>
<path d="M161.57 239.5C81.1443 239.5 81.1443 216.5 0 216.5V307H161.57H323.141H485.43H647V159C554.287 159 590.848 224.844 510.422 224.844C429.278 224.844 430.564 125.5 349.42 125.5C268.994 125.5 242.715 239.5 161.57 239.5Z" fill="url(#paint1_linear_530_33835)"/>
<defs>
<linearGradient id="paint0_linear_530_33835" x1="312.938" y1="-114.814" x2="143.84" y2="313.058" gradientUnits="userSpaceOnUse">
<stop stop-color="#CDD2FD"/>
<stop offset="1" stop-color="#6979F8"/>
</linearGradient>
<linearGradient id="paint1_linear_530_33835" x1="312.938" y1="43.6389" x2="221.618" y2="369.17" gradientUnits="userSpaceOnUse">
<stop stop-color="#CDD2FD"/>
<stop offset="1" stop-color="#6979F8"/>
</linearGradient>
</defs>
</svg>
