<svg width="17" height="17" viewBox="0 0 17 17" fill="none" xmlns="http://www.w3.org/2000/svg">
<path d="M2.83331 14.1667H1.83331C1.83331 14.7189 2.28103 15.1667 2.83331 15.1667V14.1667ZM14.1666 15.1667C14.7189 15.1667 15.1666 14.7189 15.1666 14.1667C15.1666 13.6144 14.7189 13.1667 14.1666 13.1667V15.1667ZM2.83331 11.3333L2.12621 10.6262C1.93867 10.8138 1.83331 11.0681 1.83331 11.3333H2.83331ZM10.5319 3.63469L9.82482 2.92759L9.82482 2.92759L10.5319 3.63469ZM12.1347 3.63469L11.4276 4.3418V4.3418L12.1347 3.63469ZM13.3652 4.86525L14.0724 4.15815V4.15815L13.3652 4.86525ZM13.3653 6.46803L12.6582 5.76092L12.6582 5.76092L13.3653 6.46803ZM5.66665 14.1666L5.66665 15.1666C5.93187 15.1666 6.18622 15.0613 6.37375 14.8737L5.66665 14.1666ZM13.8386 5.44779L14.7896 5.13877V5.13877L13.8386 5.44779ZM13.8386 5.8855L12.8875 5.57649V5.57649L13.8386 5.8855ZM11.1144 3.16138L10.8054 2.21032L11.1144 3.16138ZM11.5522 3.16138L11.8613 2.21032L11.5522 3.16138ZM9.20709 4.95955C8.81656 4.56903 8.1834 4.56903 7.79287 4.95955C7.40235 5.35007 7.40235 5.98324 7.79287 6.37376L9.20709 4.95955ZM10.6262 9.2071C11.0167 9.59762 11.6499 9.59762 12.0404 9.2071C12.4309 8.81657 12.4309 8.18341 12.0404 7.79288L10.6262 9.2071ZM2.83331 15.1667H14.1666V13.1667H2.83331V15.1667ZM3.83331 14.1667V11.3333H1.83331V14.1667H3.83331ZM3.54042 12.0404L11.239 4.3418L9.82482 2.92759L2.12621 10.6262L3.54042 12.0404ZM11.4276 4.3418L12.6581 5.57236L14.0724 4.15815L12.8418 2.92759L11.4276 4.3418ZM12.6582 5.76092L4.95954 13.4595L6.37375 14.8737L14.0724 7.17514L12.6582 5.76092ZM5.66664 13.1666L2.83331 13.1667L2.83332 15.1667L5.66665 15.1666L5.66664 13.1666ZM12.6581 5.57236C12.7299 5.6441 12.7852 5.69945 12.832 5.74778C12.8789 5.79613 12.9072 5.82718 12.9251 5.84824C12.9616 5.89132 12.9183 5.85151 12.8875 5.7568L14.7896 5.13877C14.7063 4.88233 14.5666 4.69151 14.4497 4.55388C14.3405 4.42516 14.2009 4.28674 14.0724 4.15815L12.6581 5.57236ZM14.0724 7.17514C14.201 7.04654 14.3405 6.90812 14.4498 6.7794C14.5666 6.64175 14.7063 6.45094 14.7896 6.19452L12.8875 5.57649C12.9183 5.4818 12.9616 5.44199 12.9251 5.48505C12.9072 5.50611 12.8789 5.53716 12.832 5.58551C12.7852 5.63383 12.7299 5.68918 12.6582 5.76092L14.0724 7.17514ZM12.8875 5.7568C12.8685 5.69823 12.8685 5.63507 12.8875 5.57649L14.7896 6.19452C14.9011 5.85141 14.9011 5.48187 14.7896 5.13877L12.8875 5.7568ZM11.239 4.3418C11.3108 4.27006 11.3661 4.21476 11.4144 4.16793C11.4628 4.12109 11.4938 4.09278 11.5149 4.07491C11.5579 4.03836 11.5181 4.08167 11.4235 4.11243L10.8054 2.21032C10.549 2.29363 10.3582 2.43334 10.2206 2.5502C10.0918 2.65947 9.95342 2.79899 9.82482 2.92759L11.239 4.3418ZM12.8418 2.92759C12.7132 2.79904 12.5748 2.65952 12.4462 2.55027C12.3085 2.43342 12.1177 2.29365 11.8613 2.21032L11.2432 4.11243C11.1485 4.08165 11.1086 4.03829 11.1517 4.07484C11.1727 4.09272 11.2038 4.12102 11.2521 4.16788C11.3005 4.21473 11.3558 4.27004 11.4276 4.3418L12.8418 2.92759ZM11.4235 4.11243C11.3649 4.13147 11.3018 4.13147 11.2432 4.11243L11.8613 2.21032C11.5182 2.09884 11.1485 2.09884 10.8054 2.21032L11.4235 4.11243ZM7.79287 6.37376L10.6262 9.2071L12.0404 7.79288L9.20709 4.95955L7.79287 6.37376Z" fill="#4A4F5B"/>
</svg>
