<svg width="17" height="17" viewBox="0 0 17 17" fill="none" xmlns="http://www.w3.org/2000/svg">
<path d="M15.1666 9.91669C15.1666 9.3644 14.7189 8.91669 14.1666 8.91669C13.6144 8.91669 13.1666 9.3644 13.1666 9.91669H15.1666ZM7.08345 3.83335C7.63574 3.83335 8.08345 3.38564 8.08345 2.83335C8.08345 2.28107 7.63574 1.83335 7.08345 1.83335V3.83335ZM2.98772 3.60688L3.87873 4.06087L2.98772 3.60688ZM3.60667 2.98776L4.06066 3.87877L3.60667 2.98776ZM3.60667 14.0123L4.06066 13.1213H4.06066L3.60667 14.0123ZM2.98772 13.3932L2.09671 13.8472L2.98772 13.3932ZM14.0124 13.3932L13.1214 12.9392L14.0124 13.3932ZM13.393 14.0123L12.939 13.1213L13.393 14.0123ZM7.08331 9.91669H6.08331C6.08331 10.469 6.53103 10.9167 7.08331 10.9167V9.91669ZM7.08331 7.79169L6.37621 7.08458C6.18867 7.27212 6.08331 7.52647 6.08331 7.79169H7.08331ZM13.4583 1.41669L14.1654 0.70958C13.7749 0.319056 13.1417 0.319056 12.7512 0.70958L13.4583 1.41669ZM15.5833 3.54169L16.2904 4.24879C16.6809 3.85827 16.6809 3.2251 16.2904 2.83458L15.5833 3.54169ZM9.20831 9.91669V10.9167C9.47353 10.9167 9.72788 10.8113 9.91542 10.6238L9.20831 9.91669ZM12.0404 2.83458C11.6499 2.44406 11.0167 2.44406 10.6262 2.83458C10.2357 3.2251 10.2357 3.85827 10.6262 4.24879L12.0404 2.83458ZM12.7512 6.37379C13.1417 6.76432 13.7749 6.76432 14.1654 6.37379C14.5559 5.98327 14.5559 5.3501 14.1654 4.95958L12.7512 6.37379ZM13.1666 9.91669V11.9H15.1666V9.91669H13.1666ZM11.9001 13.1667H5.10012V15.1667H11.9001V13.1667ZM3.83331 11.9V5.10003H1.83331V11.9H3.83331ZM5.10012 3.83335H7.08345V1.83335H5.10012V3.83335ZM3.83331 5.10003C3.83331 4.68682 3.83409 4.43706 3.84929 4.251C3.86354 4.07661 3.88532 4.04793 3.87873 4.06087L2.09671 3.15289C1.93571 3.46888 1.88029 3.79006 1.85594 4.08814C1.83254 4.37453 1.83331 4.71983 1.83331 5.10003H3.83331ZM5.10012 1.83335C4.71991 1.83335 4.37456 1.83258 4.0881 1.85597C3.79003 1.88032 3.46873 1.93572 3.15268 2.09675L4.06066 3.87877C4.04765 3.88539 4.07637 3.86359 4.25091 3.84934C4.43707 3.83413 4.68692 3.83335 5.10012 3.83335V1.83335ZM3.87873 4.06087C3.91881 3.98221 3.98252 3.91858 4.06066 3.87877L3.15268 2.09675C2.6977 2.32858 2.32828 2.69843 2.09671 3.15289L3.87873 4.06087ZM5.10012 13.1667C4.68694 13.1667 4.43708 13.1659 4.25094 13.1507C4.0764 13.1364 4.04767 13.1146 4.06066 13.1213L3.15268 14.9033C3.46871 15.0643 3.79 15.1197 4.08808 15.1441C4.37454 15.1675 4.71989 15.1667 5.10012 15.1667V13.1667ZM1.83331 11.9C1.83331 12.2802 1.83254 12.6255 1.85594 12.9119C1.88029 13.21 1.93571 13.5312 2.09671 13.8472L3.87873 12.9392C3.88532 12.9521 3.86354 12.9234 3.84929 12.7491C3.83409 12.563 3.83331 12.3132 3.83331 11.9H1.83331ZM4.06066 13.1213C3.98247 13.0814 3.91878 13.0178 3.87873 12.9392L2.09671 13.8472C2.3283 14.3017 2.69774 14.6715 3.15268 14.9033L4.06066 13.1213ZM13.1666 11.9C13.1666 12.3133 13.1659 12.5631 13.1507 12.7492C13.1365 12.9236 13.1147 12.9522 13.1214 12.9392L14.9034 13.8472C15.0645 13.5311 15.1198 13.2098 15.1441 12.9118C15.1675 12.6254 15.1666 12.2801 15.1666 11.9H13.1666ZM11.9001 15.1667C12.2803 15.1667 12.6256 15.1675 12.9119 15.144C13.21 15.1197 13.5311 15.0642 13.847 14.9033L12.939 13.1213C12.9519 13.1147 12.9232 13.1365 12.749 13.1507C12.563 13.1659 12.3133 13.1667 11.9001 13.1667V15.1667ZM13.1214 12.9392C13.0817 13.0171 13.0179 13.0811 12.939 13.1213L13.847 14.9033C14.3013 14.6718 14.6715 14.3023 14.9034 13.8472L13.1214 12.9392ZM8.08331 9.91669V7.79169H6.08331V9.91669H8.08331ZM7.79042 8.49879L14.1654 2.12379L12.7512 0.70958L6.37621 7.08458L7.79042 8.49879ZM12.7512 2.12379L14.8762 4.24879L16.2904 2.83458L14.1654 0.70958L12.7512 2.12379ZM14.8762 2.83458L8.50121 9.20958L9.91542 10.6238L16.2904 4.24879L14.8762 2.83458ZM9.20831 8.91669H7.08331V10.9167H9.20831V8.91669ZM10.6262 4.24879L12.7512 6.37379L14.1654 4.95958L12.0404 2.83458L10.6262 4.24879Z" fill="#4A4F5B"/>
</svg>
