<svg width="17" height="17" viewBox="0 0 17 17" fill="none" xmlns="http://www.w3.org/2000/svg">
<path d="M15.4074 11.4173C14.9303 12.5457 14.1841 13.5399 13.2339 14.3132C12.2838 15.0865 11.1586 15.6153 9.95691 15.8533C8.75519 16.0913 7.51346 16.0313 6.34028 15.6786C5.1671 15.3258 4.0982 14.691 3.22701 13.8298C2.35583 12.9685 1.7089 11.9069 1.34277 10.7378C0.976645 9.56872 0.902476 8.32776 1.12675 7.1234C1.35102 5.91904 1.8669 4.78795 2.6293 3.82903C3.39169 2.8701 4.37738 2.11253 5.50019 1.62256" stroke="#4A4F5B" stroke-width="2" stroke-linecap="round" stroke-linejoin="round"/>
<path d="M16 8.49982C16 7.51493 15.806 6.53968 15.4291 5.62976C15.0522 4.71984 14.4998 3.89307 13.8034 3.19665C13.1069 2.50022 12.2802 1.94779 11.3702 1.57089C10.4603 1.19399 9.48507 1 8.50018 1V8.49982H16Z" stroke="#4A4F5B" stroke-width="2" stroke-linecap="round" stroke-linejoin="round"/>
</svg>
