<svg width="25" height="25" viewBox="0 0 25 25" fill="none" xmlns="http://www.w3.org/2000/svg">
<path fill-rule="evenodd" clip-rule="evenodd" d="M15.4924 16.8945C11.9891 19.7004 6.86096 19.4796 3.61339 16.232C0.128869 12.7475 0.128869 7.09792 3.61339 3.61339C7.09792 0.128868 12.7474 0.128869 16.232 3.61339C19.4795 6.86096 19.7004 11.9891 16.8945 15.4924L23.7096 22.3076C24.0968 22.6947 24.0968 23.3225 23.7096 23.7096C23.3225 24.0968 22.6947 24.0968 22.3076 23.7096L15.4924 16.8945ZM5.01546 14.8299C2.30527 12.1197 2.30527 7.72565 5.01546 5.01546C7.72564 2.30527 12.1197 2.30527 14.8299 5.01546C17.5381 7.72366 17.5401 12.1133 14.8359 14.8239C14.8339 14.8259 14.8319 14.8279 14.8299 14.8299C14.8279 14.8319 14.8259 14.8339 14.8239 14.8359C12.1133 17.5401 7.72366 17.5381 5.01546 14.8299Z" fill="#4A4F5B" stroke="#4A4F5B" stroke-width="0.8" stroke-linecap="round"/>
</svg>
