<svg width="17" height="17" viewBox="0 0 17 17" fill="none" xmlns="http://www.w3.org/2000/svg">
<path d="M14.8751 14.1667H4.3918C3.5984 14.1667 3.2014 14.1666 2.89836 14.0122C2.63179 13.8764 2.41523 13.6597 2.27941 13.3932C2.125 13.0901 2.125 12.6934 2.125 11.9V3.54166M14.875 4.95832L10.7343 8.58142C10.2384 9.01534 9.99038 9.23231 9.71883 9.32239C9.39854 9.42863 9.05075 9.41703 8.73824 9.28972C8.47328 9.18178 8.24044 8.94885 7.7745 8.48291C7.31868 8.02709 7.09077 7.79918 6.83085 7.69136C6.52425 7.56416 6.18286 7.54861 5.86601 7.64752C5.5974 7.73137 5.3497 7.93772 4.85449 8.3504L2.125 10.625" stroke="#4A4F5B" stroke-width="2" stroke-linecap="round" stroke-linejoin="round"/>
</svg>
