<svg width="17" height="17" viewBox="0 0 17 17" fill="none" xmlns="http://www.w3.org/2000/svg">
<path d="M14.1666 11.9001V8.11193V8.11141C14.1666 7.73327 14.1666 7.5441 14.1206 7.36806C14.0799 7.21198 14.0127 7.06397 13.9221 6.9305C13.8199 6.77989 13.6776 6.65531 13.3927 6.40607L9.99274 3.43107C9.46389 2.96833 9.19946 2.73698 8.90188 2.64898C8.63966 2.57143 8.3603 2.57143 8.09808 2.64898C7.80066 2.73694 7.5365 2.96807 7.00822 3.43031L7.00736 3.43107L3.60736 6.40607L3.60668 6.40666C3.32229 6.65551 3.18 6.78001 3.07784 6.9305C2.98724 7.06397 2.92012 7.21198 2.87933 7.36806C2.83331 7.54418 2.83331 7.73344 2.83331 8.11193V11.9001C2.83331 12.6935 2.83331 13.0901 2.98772 13.3932C3.12354 13.6597 3.34011 13.8765 3.60667 14.0123C3.90958 14.1667 4.30638 14.1667 5.09912 14.1667H5.10012H11.9001H11.9011C12.6939 14.1667 13.0901 14.1667 13.393 14.0123C13.6596 13.8765 13.8766 13.6597 14.0124 13.3932C14.1666 13.0904 14.1666 12.6942 14.1666 11.9024V11.9001Z" stroke="#282828" stroke-width="2" stroke-linecap="round" stroke-linejoin="round"/>
</svg>
