<svg width="422" height="421" viewBox="0 0 422 421" fill="none" xmlns="http://www.w3.org/2000/svg">
<circle cx="210.945" cy="210.2" r="149.689" transform="rotate(38.1918 210.945 210.2)" fill="#5D71EC"/>
<mask id="mask0_530_33736" style="mask-type:luminance" maskUnits="userSpaceOnUse" x="61" y="60" width="300" height="300">
<circle cx="210.945" cy="210.2" r="149.689" transform="rotate(38.1918 210.945 210.2)" fill="white"/>
</mask>
<g mask="url(#mask0_530_33736)">
<path fill-rule="evenodd" clip-rule="evenodd" d="M376.328 220.046L372.877 262.428L304.2 360.09L206.652 216.388L376.328 220.046Z" fill="url(#paint0_linear_530_33736)"/>
<path fill-rule="evenodd" clip-rule="evenodd" d="M301.881 354.521L265.723 376.677L146.883 378.549L205.574 214.946L301.881 354.521Z" fill="url(#paint1_linear_530_33736)"/>
<path fill-rule="evenodd" clip-rule="evenodd" d="M149.489 374.872L110.312 358.642L38.9449 263.598L205.8 214.917L149.489 374.872Z" fill="url(#paint2_linear_530_33736)"/>
<path fill-rule="evenodd" clip-rule="evenodd" d="M44.1004 263.403L34.2022 222.169L135 35.5L206.604 214.941L44.1004 263.403Z" fill="url(#paint3_linear_530_33736)"/>
<path fill-rule="evenodd" clip-rule="evenodd" d="M72.3957 112.182L99.9371 79.9374L212.383 41.4336L207.12 215.165L72.3957 112.182Z" fill="white"/>
<path fill-rule="evenodd" clip-rule="evenodd" d="M211.342 46.5893L253.724 50.04L351.386 118.717L207.684 216.265L211.342 46.5893Z" fill="url(#paint4_linear_530_33736)"/>
<path fill-rule="evenodd" clip-rule="evenodd" d="M346.309 118.418L368.465 154.576L370.336 273.416L206.734 214.726L346.309 118.418Z" fill="url(#paint5_linear_530_33736)"/>
</g>
<defs>
<linearGradient id="paint0_linear_530_33736" x1="249.691" y1="227.719" x2="225.021" y2="259.078" gradientUnits="userSpaceOnUse">
<stop stop-color="#93DCF7"/>
<stop offset="1" stop-color="#93DCF7"/>
</linearGradient>
<linearGradient id="paint1_linear_530_33736" x1="246.55" y1="241.298" x2="185.149" y2="238.949" gradientUnits="userSpaceOnUse">
<stop stop-color="#98DDF7"/>
<stop offset="0.911728" stop-color="#B5E9FC"/>
</linearGradient>
<linearGradient id="paint2_linear_530_33736" x1="224" y1="281.51" x2="170.474" y2="197.749" gradientUnits="userSpaceOnUse">
<stop offset="0.0854397" stop-color="#B6E8FC"/>
<stop offset="1" stop-color="#E1482C"/>
</linearGradient>
<linearGradient id="paint3_linear_530_33736" x1="214.5" y1="215.511" x2="158.5" y2="67.5106" gradientUnits="userSpaceOnUse">
<stop stop-color="#E1482C"/>
<stop offset="0.429541" stop-color="#E1562C"/>
<stop offset="0.945482" stop-color="#FF3A2C"/>
</linearGradient>
<linearGradient id="paint4_linear_530_33736" x1="181.759" y1="173.11" x2="238.308" y2="226.246" gradientUnits="userSpaceOnUse">
<stop offset="0.394356" stop-color="#1877F2"/>
<stop offset="1" stop-color="#63ABFA"/>
</linearGradient>
<linearGradient id="paint5_linear_530_33736" x1="230.552" y1="179.796" x2="228.551" y2="232.069" gradientUnits="userSpaceOnUse">
<stop stop-color="#63ABFA"/>
<stop offset="1" stop-color="#91DAFA"/>
</linearGradient>
</defs>
</svg>
