<svg width="22" height="23" viewBox="0 0 22 23" fill="none" xmlns="http://www.w3.org/2000/svg">
<g filter="url(#filter0_dd_530_33862)">
<path d="M4 9.729C4 5.86301 7.13401 2.729 11 2.729C14.866 2.729 18 5.86301 18 9.729C18 13.595 14.866 16.729 11 16.729C7.13401 16.729 4 13.595 4 9.729Z" fill="url(#paint0_linear_530_33862)"/>
<path d="M5 9.729C5 6.4153 7.68629 3.729 11 3.729C14.3137 3.729 17 6.4153 17 9.729C17 13.0427 14.3137 15.729 11 15.729C7.68629 15.729 5 13.0427 5 9.729Z" stroke="white" stroke-width="2"/>
</g>
<defs>
<filter id="filter0_dd_530_33862" x="0" y="0.729004" width="22" height="22" filterUnits="userSpaceOnUse" color-interpolation-filters="sRGB">
<feFlood flood-opacity="0" result="BackgroundImageFix"/>
<feColorMatrix in="SourceAlpha" type="matrix" values="0 0 0 0 0 0 0 0 0 0 0 0 0 0 0 0 0 0 127 0" result="hardAlpha"/>
<feOffset dy="2"/>
<feGaussianBlur stdDeviation="2"/>
<feColorMatrix type="matrix" values="0 0 0 0 0.196487 0 0 0 0 0.196487 0 0 0 0 0.279476 0 0 0 0.06 0"/>
<feBlend mode="multiply" in2="BackgroundImageFix" result="effect1_dropShadow_530_33862"/>
<feColorMatrix in="SourceAlpha" type="matrix" values="0 0 0 0 0 0 0 0 0 0 0 0 0 0 0 0 0 0 127 0" result="hardAlpha"/>
<feOffset dy="2"/>
<feGaussianBlur stdDeviation="1"/>
<feColorMatrix type="matrix" values="0 0 0 0 0.196487 0 0 0 0 0.196487 0 0 0 0 0.279476 0 0 0 0.06 0"/>
<feBlend mode="multiply" in2="effect1_dropShadow_530_33862" result="effect2_dropShadow_530_33862"/>
<feBlend mode="normal" in="SourceGraphic" in2="effect2_dropShadow_530_33862" result="shape"/>
</filter>
<linearGradient id="paint0_linear_530_33862" x1="10.7715" y1="-3.58535" x2="-2.77145" y2="9.95755" gradientUnits="userSpaceOnUse">
<stop stop-color="#CDD2FD"/>
<stop offset="1" stop-color="#6979F8"/>
</linearGradient>
</defs>
</svg>
