<svg width="17" height="19" viewBox="0 0 17 19" fill="none" xmlns="http://www.w3.org/2000/svg">
<path d="M5.58333 3.75L8.33333 1M8.33333 1L11.0833 3.75M8.33333 1V10.1667M3.75021 7.41667C2.89598 7.41667 2.46887 7.41667 2.13196 7.55622C1.68274 7.74229 1.32563 8.09918 1.13955 8.5484C1 8.88531 1 9.31244 1 10.1667V14.5667C1 15.5934 1 16.1069 1.19982 16.499C1.37559 16.844 1.65585 17.1244 2.00081 17.3002C2.39299 17.5 2.90675 17.5 3.93351 17.5H12.7335C13.7603 17.5 14.2733 17.5 14.6655 17.3002C15.0104 17.1244 15.2913 16.844 15.467 16.499C15.6669 16.1069 15.6667 15.5934 15.6667 14.5667V10.1667C15.6667 9.31244 15.6666 8.88531 15.527 8.5484C15.3409 8.09918 14.9841 7.74229 14.5349 7.55622C14.198 7.41667 13.7709 7.41667 12.9167 7.41667" stroke="#4A4F5B" stroke-width="2" stroke-linecap="round" stroke-linejoin="round"/>
</svg>
