<svg width="19" height="19" viewBox="0 0 19 19" fill="none" xmlns="http://www.w3.org/2000/svg">
<path d="M6.96104 2.15245C6.68262 1.45641 6.00849 1 5.25883 1H2.73684C1.77761 1 1 1.77765 1 2.73688C1 10.8903 7.60988 17.5 15.7633 17.5C16.7226 17.5 17.5 16.7224 17.5 15.7632L17.4999 13.2412C17.4999 12.4915 17.0434 11.8175 16.3474 11.539L13.9315 10.5726C13.3063 10.3225 12.5945 10.4353 12.0772 10.8664L11.4528 11.3865C10.7244 11.9935 9.65331 11.945 8.98283 11.2745L7.22542 9.51721C6.55493 8.84673 6.50662 7.77558 7.11365 7.04714L7.63375 6.42298C8.06484 5.90566 8.17752 5.19369 7.92743 4.56846L6.96104 2.15245Z" stroke="#4A4F5B" stroke-width="2" stroke-linecap="round" stroke-linejoin="round"/>
</svg>
