<svg width="19" height="15" viewBox="0 0 19 15" fill="none" xmlns="http://www.w3.org/2000/svg">
<path d="M1.91667 1.91667L9.45952 7.41667L16.5833 1.91667M17.5 3.93329V10.9C17.5 11.9267 17.5002 12.4402 17.3004 12.8324C17.1246 13.1773 16.8438 13.4577 16.4988 13.6335C16.1066 13.8333 15.5936 13.8333 14.5668 13.8333H3.93351C2.90675 13.8333 2.39299 13.8333 2.00081 13.6335C1.65585 13.4577 1.37559 13.1773 1.19982 12.8324C1 12.4402 1 11.9267 1 10.9V3.93329C1 2.90653 1 2.39321 1.19982 2.00104C1.37559 1.65607 1.65585 1.37559 2.00081 1.19982C2.39299 1 2.90675 1 3.93351 1H14.5668C15.5936 1 16.1066 1 16.4988 1.19982C16.8438 1.37559 17.1246 1.65607 17.3004 2.00104C17.5002 2.39321 17.5 2.90653 17.5 3.93329Z" stroke="#4A4F5B" stroke-width="2" stroke-linecap="round" stroke-linejoin="round"/>
</svg>
