<svg width="27" height="26" viewBox="0 0 27 26" fill="none" xmlns="http://www.w3.org/2000/svg">
<path d="M24.794 13.8579C24.5737 13.6207 24.4522 13.3157 24.4522 13C24.4522 12.6843 24.5737 12.3793 24.794 12.1421L26.5528 10.2704C26.7467 10.0659 26.867 9.80855 26.8966 9.53533C26.9263 9.26211 26.8636 8.98704 26.7177 8.74958L23.9695 4.25219C23.8251 4.015 23.6052 3.82699 23.3412 3.71495C23.0772 3.60292 22.7825 3.57259 22.4992 3.62827L19.9158 4.12221C19.5871 4.18646 19.2449 4.13467 18.9538 3.97663C18.6627 3.81858 18.4428 3.56521 18.3356 3.26432L17.4974 0.885648C17.4052 0.627475 17.2295 0.403238 16.9953 0.244629C16.761 0.0860209 16.48 0.00106429 16.1919 0.00176771H10.6954C10.3958 -0.0130269 10.0993 0.0653633 9.85113 0.224966C9.603 0.384568 9.41692 0.616609 9.32131 0.885648L8.5518 3.26432C8.44462 3.56521 8.22472 3.81858 7.9336 3.97663C7.64248 4.13467 7.30027 4.18646 6.97156 4.12221L4.3195 3.62827C4.05092 3.59237 3.77713 3.63246 3.5326 3.74349C3.28807 3.85452 3.08375 4.03152 2.94537 4.25219L0.19712 8.74958C0.0475599 8.98439 -0.019687 9.25792 0.00499295 9.53106C0.0296729 9.8042 0.145016 10.063 0.334532 10.2704L2.07967 12.1421C2.29997 12.3793 2.42146 12.6843 2.42146 13C2.42146 13.3157 2.29997 13.6207 2.07967 13.8579L0.334532 15.7296C0.145016 15.937 0.0296729 16.1958 0.00499295 16.4689C-0.019687 16.7421 0.0475599 17.0156 0.19712 17.2504L2.94537 21.7478C3.08979 21.985 3.30968 22.173 3.57369 22.285C3.83771 22.3971 4.13237 22.4274 4.41568 22.3717L6.99904 21.8778C7.32775 21.8135 7.66996 21.8653 7.96108 22.0234C8.2522 22.1814 8.47211 22.4348 8.57928 22.7357L9.4175 25.1144C9.51311 25.3834 9.69919 25.6154 9.94732 25.775C10.1954 25.9346 10.492 26.013 10.7916 25.9982H16.2881C16.5762 25.9989 16.8572 25.914 17.0915 25.7554C17.3257 25.5968 17.5014 25.3725 17.5935 25.1144L18.4318 22.7357C18.5389 22.4348 18.7588 22.1814 19.05 22.0234C19.3411 21.8653 19.6833 21.8135 20.012 21.8778L22.5954 22.3717C22.8787 22.4274 23.1733 22.3971 23.4374 22.285C23.7014 22.173 23.9213 21.985 24.0657 21.7478L26.8139 17.2504C26.9598 17.013 27.0225 16.7379 26.9928 16.4647C26.9632 16.1915 26.8429 15.9341 26.649 15.7296L24.794 13.8579ZM22.7465 15.5996L23.8458 16.7695L22.0869 19.6551L20.4655 19.3431C19.4758 19.1518 18.4463 19.3108 17.5724 19.79C16.6985 20.2692 16.041 21.0353 15.7247 21.9428L15.2026 23.3986H11.6848L11.1901 21.9168C10.8739 21.0093 10.2164 20.2432 9.34248 19.764C8.46857 19.2848 7.43906 19.1258 6.44939 19.3171L4.82792 19.6291L3.04156 16.7565L4.14086 15.5866C4.81687 14.8717 5.1906 13.9462 5.1906 12.987C5.1906 12.0278 4.81687 11.1023 4.14086 10.3874L3.04156 9.21751L4.80044 6.3579L6.42191 6.66986C7.41158 6.86122 8.44109 6.7022 9.315 6.22298C10.1889 5.74376 10.8464 4.9777 11.1626 4.07021L11.6848 2.60141H15.2026L15.7247 4.08321C16.041 4.9907 16.6985 5.75676 17.5724 6.23598C18.4463 6.7152 19.4758 6.87422 20.4655 6.68286L22.0869 6.3709L23.8458 9.25651L22.7465 10.4263C22.0781 11.1396 21.709 12.0598 21.709 13.013C21.709 13.9662 22.0781 14.8864 22.7465 15.5996ZM13.4437 7.80071C12.3566 7.80071 11.2939 8.10564 10.39 8.67695C9.4861 9.24825 8.7816 10.0603 8.36558 11.0103C7.94957 11.9604 7.84072 13.0058 8.0528 14.0143C8.26488 15.0229 8.78838 15.9493 9.55707 16.6765C10.3258 17.4036 11.3052 17.8988 12.3714 18.0994C13.4376 18.3 14.5428 18.197 15.5471 17.8035C16.5515 17.41 17.4099 16.7436 18.0139 15.8886C18.6178 15.0336 18.9402 14.0283 18.9402 13C18.9402 11.6211 18.3611 10.2986 17.3303 9.32354C16.2995 8.34849 14.9015 7.80071 13.4437 7.80071ZM13.4437 15.5996C12.9001 15.5996 12.3688 15.4472 11.9168 15.1615C11.4649 14.8759 11.1126 14.4699 10.9046 13.9948C10.6966 13.5198 10.6422 12.9971 10.7482 12.4928C10.8543 11.9886 11.116 11.5253 11.5004 11.1618C11.8847 10.7982 12.3744 10.5506 12.9075 10.4503C13.4406 10.35 13.9932 10.4015 14.4954 10.5982C14.9976 10.795 15.4268 11.1282 15.7288 11.5557C16.0308 11.9832 16.1919 12.4858 16.1919 13C16.1919 13.6895 15.9024 14.3507 15.387 14.8382C14.8716 15.3258 14.1726 15.5996 13.4437 15.5996Z" fill="#4A4F5B"/>
</svg>
