<svg width="19" height="19" viewBox="0 0 19 19" fill="none" xmlns="http://www.w3.org/2000/svg">
<path d="M5.1344 16.4016C6.34577 17.1002 7.75126 17.5 9.25012 17.5C13.8065 17.5 17.5 13.8063 17.5 9.25C17.5 4.69365 13.8063 1 9.25 1C4.69365 1 1 4.69365 1 9.25C1 10.7489 1.39971 12.1544 2.09834 13.3657L2.09892 13.3667C2.16756 13.4857 2.20196 13.5454 2.21748 13.6015C2.23196 13.6539 2.23674 13.7007 2.23304 13.7549C2.2291 13.8124 2.20921 13.8721 2.16993 13.9899L2.16846 13.9944L1.4637 16.1086L1.46315 16.1103C1.31424 16.557 1.23975 16.7805 1.29278 16.9292C1.33899 17.0588 1.4411 17.1608 1.57068 17.207C1.71958 17.2601 1.94373 17.1855 2.39156 17.0362L4.50582 16.3315L4.50725 16.331C4.62706 16.291 4.68694 16.2711 4.74497 16.2671C4.7992 16.2634 4.84613 16.2681 4.89852 16.2826C4.95481 16.2981 5.01472 16.3326 5.1344 16.4016Z" stroke="#4A4F5B" stroke-width="2" stroke-linecap="round" stroke-linejoin="round"/>
</svg>
