<svg width="27" height="29" viewBox="0 0 27 29" fill="none" xmlns="http://www.w3.org/2000/svg">
<path d="M2.59521 18.0914L3.15511 17.5504C3.33577 17.3758 3.43748 17.1391 3.43748 16.8923V11.7222C3.43748 6.3528 7.94257 2.00001 13.4998 2C19.0572 1.99999 23.5622 6.35278 23.5622 11.7222V16.8922C23.5622 17.1391 23.6637 17.3758 23.8444 17.5504L24.4043 18.0914C24.5758 18.2571 24.6617 18.34 24.7301 18.4319C24.8592 18.6057 24.9449 18.806 24.9807 19.0171C24.9997 19.1288 25 19.246 25 19.4803C25 20.0158 25 20.2835 24.9246 20.4995C24.7811 20.9104 24.4472 21.2329 24.0219 21.3715C23.7984 21.4444 23.5208 21.4444 22.9666 21.4444H4.03269C3.47847 21.4444 3.20127 21.4444 2.97774 21.3715C2.55244 21.2329 2.21886 20.9104 2.0754 20.4995C2 20.2835 2 20.0158 2 19.4803C2 19.246 2 19.1288 2.01898 19.0171C2.05483 18.806 2.14038 18.6057 2.26953 18.4319C2.33787 18.34 2.42371 18.2571 2.59521 18.0914ZM17.8123 21.4444V22.8333C17.8123 25.1345 15.8815 27 13.4998 27C11.1182 27 9.18741 25.1345 9.18741 22.8333V21.4444H17.8123Z" stroke="#4A4F5B" stroke-width="2.75" stroke-linecap="round" stroke-linejoin="round"/>
</svg>
