<svg width="18" height="19" viewBox="0 0 18 19" fill="none" xmlns="http://www.w3.org/2000/svg">
<path d="M2.03114 17.7941L2.48513 16.9031L2.03114 17.7941ZM1.20588 16.9687L0.31487 17.4227L1.20588 16.9687ZM15.9054 16.9687L15.0144 16.5147L15.9054 16.9687ZM15.0796 17.7941L14.6256 16.9031L15.0796 17.7941ZM15.0796 3.09477L15.5336 2.20376L15.0796 3.09477ZM15.9054 3.92026L15.0144 4.37425L15.9054 3.92026ZM2.03114 3.09477L2.48513 3.98577L2.03114 3.09477ZM1.20588 3.92026L2.09688 4.37425L1.20588 3.92026ZM12.3333 14.2222V13.2222C11.781 13.2222 11.3333 13.6699 11.3333 14.2222H12.3333ZM12.3352 14.2222L13.3349 14.2456C13.3412 13.9764 13.2387 13.716 13.0505 13.5234C12.8624 13.3308 12.6045 13.2222 12.3352 13.2222V14.2222ZM12.3352 14.2241L12.3113 15.2238C12.5765 15.2302 12.8334 15.1309 13.0254 14.9477C13.2174 14.7646 13.3287 14.5127 13.3349 14.2475L12.3352 14.2241ZM12.3333 14.2241H11.3333C11.3333 14.767 11.7666 15.2108 12.3094 15.2238L12.3333 14.2241ZM8.55556 14.2222V13.2222C8.00327 13.2222 7.55556 13.6699 7.55556 14.2222H8.55556ZM8.55744 14.2222L9.55717 14.2456C9.56346 13.9764 9.46093 13.716 9.27276 13.5234C9.0846 13.3308 8.82671 13.2222 8.55744 13.2222V14.2222ZM8.5574 14.2241L8.53348 15.2238C8.79872 15.2302 9.05561 15.1309 9.24759 14.9477C9.43958 14.7646 9.55093 14.5127 9.55713 14.2475L8.5574 14.2241ZM8.55556 14.2241H7.55556C7.55556 14.767 7.98883 15.2108 8.53164 15.2238L8.55556 14.2241ZM4.77778 14.2222V13.2222C4.22549 13.2222 3.77778 13.6699 3.77778 14.2222H4.77778ZM4.77967 14.2222L5.77939 14.2456C5.78568 13.9764 5.68315 13.716 5.49498 13.5234C5.30682 13.3308 5.04893 13.2222 4.77967 13.2222V14.2222ZM4.77962 14.2241L4.7557 15.2238C5.02094 15.2302 5.27783 15.1309 5.46982 14.9477C5.6618 14.7646 5.77315 14.5127 5.77935 14.2475L4.77962 14.2241ZM4.77778 14.2241H3.77778C3.77778 14.767 4.21105 15.2108 4.75386 15.2238L4.77778 14.2241ZM12.3352 10.4444H13.3352C13.3352 9.89216 12.8875 9.44444 12.3352 9.44444V10.4444ZM12.3352 10.4463L12.3113 11.446C12.5805 11.4525 12.841 11.35 13.0338 11.1618C13.2265 10.9737 13.3352 10.7157 13.3352 10.4463H12.3352ZM12.3333 10.4463H11.3333C11.3333 10.9893 11.7666 11.433 12.3094 11.446L12.3333 10.4463ZM12.3333 10.4444V9.44444C11.781 9.44444 11.3333 9.89216 11.3333 10.4444H12.3333ZM8.55556 10.4444V9.44444C8.00327 9.44444 7.55556 9.89216 7.55556 10.4444H8.55556ZM8.55744 10.4444L9.55717 10.4678C9.56346 10.1986 9.46093 9.93826 9.27276 9.74565C9.0846 9.55303 8.82671 9.44444 8.55744 9.44444V10.4444ZM8.5574 10.4463L8.53348 11.446C8.79872 11.4524 9.05561 11.3531 9.24759 11.17C9.43958 10.9868 9.55093 10.7349 9.55713 10.4697L8.5574 10.4463ZM8.55556 10.4463H7.55556C7.55556 10.9893 7.98883 11.433 8.53164 11.446L8.55556 10.4463ZM4.77778 10.4444V9.44444C4.22549 9.44444 3.77778 9.89216 3.77778 10.4444H4.77778ZM4.77967 10.4444L5.77939 10.4678C5.78568 10.1986 5.68315 9.93826 5.49498 9.74565C5.30682 9.55303 5.04893 9.44444 4.77967 9.44444V10.4444ZM4.77962 10.4463L4.7557 11.446C5.02094 11.4524 5.27783 11.3531 5.46982 11.17C5.6618 10.9868 5.77315 10.7349 5.77935 10.4697L4.77962 10.4463ZM4.77778 10.4463H3.77778C3.77778 10.9893 4.21105 11.433 4.75386 11.446L4.77778 10.4463ZM1 5.66667C0.447715 5.66667 0 6.11438 0 6.66667C0 7.21895 0.447715 7.66667 1 7.66667V5.66667ZM16.1111 7.66667C16.6634 7.66667 17.1111 7.21895 17.1111 6.66667C17.1111 6.11438 16.6634 5.66667 16.1111 5.66667V7.66667ZM13.3333 1C13.3333 0.447715 12.8856 0 12.3333 0C11.781 0 11.3333 0.447715 11.3333 1H13.3333ZM11.3333 2.88889C11.3333 3.44117 11.781 3.88889 12.3333 3.88889C12.8856 3.88889 13.3333 3.44117 13.3333 2.88889H11.3333ZM5.77778 1C5.77778 0.447715 5.33006 0 4.77778 0C4.22549 0 3.77778 0.447715 3.77778 1H5.77778ZM3.77778 2.88889C3.77778 3.44117 4.22549 3.88889 4.77778 3.88889C5.33006 3.88889 5.77778 3.44117 5.77778 2.88889H3.77778ZM4.02241 3.88889H13.0891V1.88889H4.02241V3.88889ZM15.1111 5.91106V14.9777H17.1111V5.91106H15.1111ZM13.0891 17H4.02241V19H13.0891V17ZM2 14.9777V5.91106H0V14.9777H2ZM4.02241 17C3.47699 17 3.12794 16.9992 2.86302 16.9776C2.60971 16.9569 2.52265 16.9222 2.48513 16.9031L1.57715 18.6851C1.94369 18.8719 2.32332 18.9401 2.70016 18.9709C3.0654 19.0008 3.50995 19 4.02241 19V17ZM0 14.9777C0 15.4902 -0.000777602 15.9347 0.0290552 16.2998C0.0598404 16.6766 0.128124 17.0562 0.31487 17.4227L2.09688 16.5147C2.07775 16.4772 2.0431 16.3901 2.02241 16.137C2.00078 15.8721 2 15.5232 2 14.9777H0ZM2.48513 16.9031C2.31803 16.8179 2.18218 16.6821 2.09688 16.5147L0.31487 17.4227C0.59176 17.9661 1.03342 18.4081 1.57715 18.6851L2.48513 16.9031ZM15.1111 14.9777C15.1111 15.5233 15.1104 15.8722 15.0888 16.1371C15.0681 16.3904 15.0335 16.4773 15.0144 16.5147L16.7964 17.4227C16.9832 17.0561 17.0514 16.6764 17.0822 16.2997C17.1119 15.9346 17.1111 15.4901 17.1111 14.9777H15.1111ZM13.0891 19C13.6015 19 14.0459 19.0008 14.411 18.9709C14.7878 18.9401 15.1671 18.8718 15.5336 18.6851L14.6256 16.9031C14.588 16.9223 14.501 16.9569 14.248 16.9776C13.9833 16.9992 13.6345 17 13.0891 17V19ZM15.0144 16.5147C14.9295 16.6814 14.7934 16.8176 14.6256 16.9031L15.5336 18.6851C16.0766 18.4084 16.5192 17.9668 16.7964 17.4227L15.0144 16.5147ZM13.0891 3.88889C13.6345 3.88889 13.9833 3.88967 14.2481 3.9113C14.501 3.93197 14.588 3.96661 14.6256 3.98577L15.5336 2.20376C15.1671 2.01705 14.7878 1.94874 14.411 1.91795C14.0459 1.88811 13.6015 1.88889 13.0891 1.88889V3.88889ZM17.1111 5.91106C17.1111 5.39873 17.1119 4.95427 17.0822 4.5892C17.0514 4.21244 16.9832 3.83287 16.7964 3.46627L15.0144 4.37425C15.0335 4.41171 15.0681 4.4986 15.0888 4.75176C15.1104 5.01661 15.1111 5.36552 15.1111 5.91106H17.1111ZM14.6256 3.98577C14.7932 4.0712 14.9294 4.20741 15.0144 4.37425L16.7964 3.46627C16.5193 2.92228 16.0767 2.48052 15.5336 2.20376L14.6256 3.98577ZM4.02241 1.88889C3.50996 1.88889 3.06541 1.88811 2.70018 1.91794C2.32335 1.94872 1.94371 2.01699 1.57715 2.20376L2.48513 3.98577C2.52263 3.96666 2.60968 3.93199 2.863 3.9113C3.12792 3.88967 3.47698 3.88889 4.02241 3.88889V1.88889ZM2 5.91106C2 5.36562 2.00078 5.01671 2.02241 4.75192C2.04309 4.49881 2.07774 4.41182 2.09688 4.37425L0.31487 3.46627C0.128136 3.83276 0.0598446 4.21223 0.029056 4.58904C-0.000777841 4.95417 0 5.39863 0 5.91106H2ZM1.57715 2.20376C1.03331 2.48086 0.591706 2.92295 0.31487 3.46627L2.09688 4.37425C2.18224 4.20674 2.31814 4.07086 2.48513 3.98577L1.57715 2.20376ZM12.3333 15.2222H12.3352V13.2222H12.3333V15.2222ZM11.3355 14.1989L11.3355 14.2008L13.3349 14.2475L13.3349 14.2456L11.3355 14.1989ZM12.3591 13.2244L12.3573 13.2244L12.3094 15.2238L12.3113 15.2238L12.3591 13.2244ZM13.3333 14.2241V14.2222H11.3333V14.2241H13.3333ZM8.55556 15.2222H8.55744V13.2222H8.55556V15.2222ZM7.55772 14.1989L7.55767 14.2008L9.55713 14.2475L9.55717 14.2456L7.55772 14.1989ZM8.58132 13.2244L8.57947 13.2244L8.53164 15.2238L8.53348 15.2238L8.58132 13.2244ZM9.55556 14.2241V14.2222H7.55556V14.2241H9.55556ZM4.77778 15.2222H4.77967V13.2222H4.77778V15.2222ZM3.77994 14.1989L3.7799 14.2008L5.77935 14.2475L5.77939 14.2456L3.77994 14.1989ZM4.80354 13.2244L4.8017 13.2244L4.75386 15.2238L4.7557 15.2238L4.80354 13.2244ZM5.77778 14.2241V14.2222H3.77778V14.2241H5.77778ZM11.3352 10.4444V10.4463H13.3352V10.4444H11.3352ZM12.3591 9.44662L12.3573 9.44658L12.3094 11.446L12.3113 11.446L12.3591 9.44662ZM13.3333 10.4463V10.4444H11.3333V10.4463H13.3333ZM12.3333 11.4444H12.3352V9.44444H12.3333V11.4444ZM8.55556 11.4444H8.55744V9.44444H8.55556V11.4444ZM7.55772 10.4211L7.55767 10.423L9.55713 10.4697L9.55717 10.4678L7.55772 10.4211ZM8.58132 9.44662L8.57947 9.44658L8.53164 11.446L8.53348 11.446L8.58132 9.44662ZM9.55556 10.4463V10.4444H7.55556V10.4463H9.55556ZM4.77778 11.4444H4.77967V9.44444H4.77778V11.4444ZM3.77994 10.4211L3.7799 10.423L5.77935 10.4697L5.77939 10.4678L3.77994 10.4211ZM4.80354 9.44662L4.8017 9.44658L4.75386 11.446L4.7557 11.446L4.80354 9.44662ZM5.77778 10.4463V10.4444H3.77778V10.4463H5.77778ZM1 7.66667H16.1111V5.66667H1V7.66667ZM11.3333 1V2.88889H13.3333V1H11.3333ZM3.77778 1V2.88889H5.77778V1H3.77778Z" fill="#4A4F5B"/>
</svg>
